# AST/ASF file generated using VICON BodyLanguage
# -----------------------------------------------
:version 1.10
:name VICON
:units
  mass 1.0
  length 0.45
  angle deg
:documentation
   .ast/.asf automatically generated from VICON data using
   VICON BodyBuilder and BodyLanguage model FoxedUp or BRILLIANT.MOD
:root
   order TX TY TZ RX RY RZ
   axis XYZ
   position 0 0 0  
   orientation 0 0 0 
:bonedata
  begin
     id 1 
     name lhipjoint
     direction 0.521689 -0.742065 0.420928 
     length 2.47002 
     axis 0 0 0  XYZ
  end
  begin
     id 2 
     name lfemur
     direction 0.34202 -0.939693 0  
     length 7.24654  
     axis 0 0 20  XYZ
    dof rx ry rz
    limits (-160.0 20.0)
           (-70.0 70.0)
           (-60.0 70.0)
  end
  begin
     id 3 
     name ltibia
     direction 0.34202 -0.939693 0   
     length 8.04849   
     axis 0 0 20   XYZ
    dof rx
    limits (-10.0 170.0)
  end
  begin
     id 4 
     name lfoot
     direction 0.0745411 -0.2048 0.975961   
     length 1.72367   
     axis -90 7.62852e-016 20   XYZ
    dof rx rz
    limits (-45.0 90.0)
           (-70.0 20.0)
  end
  begin
     id 5 
     name ltoes
     direction 1.53556e-011 -4.21901e-011 1   
     length 0.87311   
     axis -90 7.62852e-016 20   XYZ
    dof rx
    limits (-90.0 20.0)
  end
  begin
     id 6 
     name rhipjoint
     direction -0.52849 -0.738415 0.418857   
     length 2.48223  
     axis 0 0 0  XYZ 
  end
  begin
     id 7 
     name rfemur
     direction -0.34202 -0.939693 0   
     length 7.15571   
     axis 0 0 -20   XYZ
    dof rx ry rz
    limits (-160.0 20.0)
           (-70.0 70.0)
           (-70.0 60.0)
  end
  begin
     id 8 
     name rtibia
     direction -0.34202 -0.939693 0   
     length 7.81659   
     axis 0 0 -20   XYZ
    dof rx
    limits (-10.0 170.0)
 end
 begin
     id 9 
     name rfoot
     direction -0.0917348 -0.252039 0.963359   
     length 1.84382  
     axis -90 -7.62852e-016 -20   XYZ
    dof rx rz
    limits (-45.0 90.0)
           (-20.0 70.0)
  end
  begin
     id 10 
     name rtoes
     direction -1.53551e-011 -4.21879e-011 1   
     length 0.927771   
     axis -90 -7.62852e-016 -20   XYZ
    dof rx
    limits (-90.0 20.0)
  end
  begin
     id 11 
     name lowerback
     direction 0.00583058 0.999822 0.0179296   
     length 2.1429   
     axis 0 0 0   XYZ
    dof rx ry rz
    limits (-20.0 45.0)
           (-30.0 30.0)
           (-30.0 30.0)
  end
  begin
     id 12 
     name upperback
     direction -0.0137999 0.999752 -0.0175071   
     length 2.14252   
     axis 0 0 0   XYZ
    dof rx ry rz
    limits (-20.0 45.0)
           (-30.0 30.0)
           (-30.0 30.0)
  end
  begin
     id 13 
     name thorax
     direction -0.0158036 0.99955 -0.0254909   
     length 2.1383   
     axis 0 0 0   XYZ
    dof rx ry rz
    limits (-20.0 45.0)
           (-30.0 30.0)
           (-30.0 30.0)
  end
  begin
     id 14 
     name lowerneck
     direction -0.0101179 0.999403 -0.0330262   
     length 1.65808   
     axis 0 0 0   XYZ
    dof rx ry rz
    limits (-20.0 45.0)
           (-30.0 30.0)
           (-30.0 30.0)
  end
  begin
     id 15 
     name upperneck
     direction 0.0497734 0.995978 -0.074501   
     length 1.5897   
     axis 0 0 0   XYZ
    dof rx ry rz
    limits (-20.0 45.0)
           (-30.0 30.0)
           (-30.0 30.0)
  end
  begin
     id 16
     name head
     direction 0.0189524 0.999519 -0.0245438  
     length 1.74024  
     axis 0 0 0   XYZ
    dof rx ry rz
    limits (-20.0 45.0)
           (-30.0 30.0)
           (-30.0 30.0)
  end
  begin
     id 17 
     name lclavicle
     direction 0.945604 0.324422 0.0241537  
     length 3.59089  
     axis 0 0 0   XYZ
    dof ry rz
    limits (-20.0 10.0)
           (0.0 20.0)
  end
  begin
     id 18 
     name lhumerus
     direction 1 -4.48964e-011 -2.63524e-027   
     length 5.2391   
     axis 180 -30 -90   XYZ
    dof rx ry rz
    limits (-60.0 90.0)
           (-90.0 90.0)
           (-90.0 90.0)
  end
  begin
     id 19
     name lradius
     direction 1 -4.48969e-011 3.86978e-028   
     length 3.31467   
     axis 180 -30 -90   XYZ
    dof rx
    limits (-10.0 170.0)
  end
  begin
     id 20
     name lwrist
     direction 1 -4.48963e-011 7.20928e-028   
     length 1.65734   
     axis -5.52449e-016 90 90   XYZ
    dof ry
    limits (-180.0 0.0)
 end
  begin
     id 21 
     name lhand
     direction 1 -4.48964e-011 1.44186e-027   
     length 0.9659   
     axis -9.20027e-016 90 90   XYZ
    dof rx rz
    limits (-90.0 90.0)
           (-45.0 45.0)
  end
  begin
     id 22 
     name lfingers
     direction 1 -4.48965e-011 2.88371e-027   
     length 0.778733   
     axis -1.84005e-015 90 90   XYZ
    dof rx
    limits (0.0 90.0)
  end
  begin
     id 23
     name lthumb
     direction 0.707107 -6.34931e-011 0.707107   
     length 1.11811   
     axis -90 45 2.85299e-015   XYZ
    dof rx rz
    limits (-45.0 45.0)
           (-45.0 45.0)
  end
  begin
     id 24 
     name rclavicle
     direction -0.923762 0.370785 0.0958234   
     length 3.54196  
     axis 0 0 0   XYZ 
    dof ry rz
    limits (-10.0 20.0)
           (-20.0 0.0)
  end
  begin
     id 25 
     name rhumerus
     direction -1 -4.48966e-011 1.18702e-017  
     length 5.30252   
     axis 180 30 90   XYZ
    dof rx ry rz
    limits (-90.0 60.0)
           (-90.0 90.0)
           (-90.0 90.0)
  end
  begin
     id 26 
     name rradius
     direction -1 -4.48966e-011 4.46736e-027   
     length 3.67875   
     axis 180 30 90   XYZ
    dof rx
    limits (-10.0 170.0)
  end
  begin
     id 27 
     name rwrist
     direction -1 -4.48966e-011 7.20928e-028   
     length 1.83937   
     axis -5.52449e-016 -90 -90   XYZ
    dof ry
    limits (-180.0 0.0)
  end
  begin
     id 28
     name rhand
     direction -1 -4.48973e-011 1.44186e-027   
     length 0.594811   
     axis -9.20027e-016 -90 -90   XYZ
    dof rx rz
    limits (-90.0 90.0)
           (-45.0 45.0)
  end
  begin
     id 29
     name rfingers
     direction -1 -4.48963e-011 2.88371e-027   
     length 0.479552   
     axis -1.84005e-015 -90 -90   XYZ
    dof rx
    limits (0.0 90.0)
  end
  begin
     id 30
     name rthumb
     direction -0.707107 -6.34932e-011 0.707107   
     length 0.688544   
     axis -90 -45 -2.85299e-015   XYZ
    dof rx rz
    limits (-45.0 45.0)
           (-45.0 45.0)
  end
:hierarchy
  begin
    root lhipjoint rhipjoint lowerback
    lhipjoint lfemur
    lfemur ltibia
    ltibia lfoot
    lfoot ltoes
    rhipjoint rfemur
    rfemur rtibia
    rtibia rfoot
    rfoot rtoes
    lowerback upperback
    upperback thorax
    thorax lowerneck lclavicle rclavicle
    lowerneck upperneck
    upperneck head
    lclavicle lhumerus
    lhumerus lradius
    lradius lwrist
    lwrist lhand lthumb
    lhand lfingers
    rclavicle rhumerus
    rhumerus rradius
    rradius rwrist
    rwrist rhand rthumb
    rhand rfingers
  end

#!OML:ASF E:\acrobat2\Project_11_07_03\Capture day 1\Session 1\Acrobat.ASF
:FULLY-SPECIFIED
:DEGREES
812
root -3.76904 16.5297 25.4104 -183.84 -21.1515 -157.462
lowerback 11.851 3.52045 -4.58692
upperback 8.51646 2.81542 -6.62515
thorax 2.41732 0.796699 -4.67944
lowerneck -1.42786 13.4141 4.71351
upperneck 4.77991 17.6821 -2.25331
head 2.41878 8.78127 -0.940133
rclavicle 6.99722e-014 -2.8625e-014
rhumerus -53.2059 -23.8555 -30.9882
rradius 35.525
rwrist -30.2982
rhand -18.5993 -47.6658
rfingers 7.12502
rthumb 7.69189 -77.5059
lclavicle 6.99722e-014 -2.8625e-014
lhumerus 66.551 -46.7827 26.1126
lradius 38.9284
lwrist 2.27704
lhand -28.171 -27.0986
lfingers 7.12502
lthumb -1.55102 2.87552
rfemur -37.1472 -23.0008 1.31184
rtibia 94.1242
rfoot -1.44445 3.32643
rtoes -5.0425
lfemur -27.2708 19.6341 14.9952
ltibia 61.8284
lfoot -35.5623 -5.31607
ltoes 8.97446
813
root -3.83842 16.616 25.455 -183.415 -19.9707 -157.906
lowerback 11.4719 3.65386 -4.9963
upperback 8.30703 2.96517 -6.86912
thorax 2.3997 0.855926 -4.71082
lowerneck -1.35504 13.4845 4.92461
upperneck 4.44824 17.7807 -2.33377
head 2.32865 8.83565 -1.00782
rclavicle -7.95139e-014 -1.94014e-013
rhumerus -54.4323 -23.9191 -31.1709
rradius 35.5456
rwrist -30.5244
rhand -18.347 -47.9353
rfingers 7.12502
rthumb 7.93548 -77.7663
lclavicle -7.95139e-014 -1.94014e-013
lhumerus 65.8588 -47.0442 26.4533
lradius 39.8761
lwrist 2.69139
lhand -28.0973 -26.7901
lfingers 7.12502
lthumb -1.47993 3.18455
rfemur -37.0607 -23.7471 2.16799
rtibia 94.1885
rfoot -0.721476 4.19521
rtoes -5.90075
lfemur -26.2823 19.6783 14.4597
ltibia 60.8118
lfoot -36.0023 -4.34177
ltoes 9.171
814
root -3.9037 16.7069 25.488 -183.099 -18.6804 -158.23
lowerback 11.0512 3.84896 -5.33841
upperback 8.04605 3.21707 -7.06225
thorax 2.35494 0.972998 -4.73234
lowerneck -1.32417 13.5321 5.00035
upperneck 4.39963 17.8308 -2.15427
head 2.29706 8.8631 -0.967477
rclavicle -5.725e-014 -5.08889e-014
rhumerus -55.8348 -24.079 -31.093
rradius 35.4702
rwrist -30.6395
rhand -18.2446 -48.1219
rfingers 7.12502
rthumb 8.03431 -77.9492
lclavicle -5.725e-014 -5.08889e-014
lhumerus 65.0461 -47.5037 26.8313
lradius 40.8225
lwrist 3.08421
lhand -28.0259 -26.6051
lfingers 7.12502
lthumb -1.41095 3.36994
rfemur -36.8261 -24.2841 3.0734
rtibia 94.1296
rfoot -0.289243 4.8635
rtoes -5.09525
lfemur -25.087 19.8432 14.15
ltibia 59.7391
lfoot -36.4055 -3.19371
ltoes 6.26471
815
root -3.96674 16.804 25.5154 -182.937 -17.4145 -158.46
lowerback 10.7182 3.97558 -5.64032
upperback 7.84159 3.37325 -7.21302
thorax 2.31753 1.04051 -4.72506
lowerneck -1.40841 13.7033 5.09758
upperneck 4.51852 18.0352 -1.96439
head 2.34838 8.96535 -0.904188
rclavicle -2.8625e-014 1.59028e-013
rhumerus -56.9702 -24.2403 -31.0531
rradius 35.2818
rwrist -30.5669
rhand -18.0525 -48.1405
rfingers 7.12502
rthumb 8.21963 -77.9606
lclavicle -2.8625e-014 1.59028e-013
lhumerus 63.9514 -47.8104 27.4794
lradius 41.4874
lwrist 3.33905
lhand -28.0285 -26.8822
lfingers 7.12502
lthumb -1.41346 3.09287
rfemur -36.2956 -24.724 3.87562
rtibia 93.9023
rfoot 0.383092 4.99128
rtoes -2.8278
lfemur -23.6817 19.9179 13.9952
ltibia 58.4996
lfoot -36.7265 -1.80835
ltoes 2.48449
816
root -4.02778 16.8974 25.5544 -182.704 -16.3133 -158.832
lowerback 10.5334 4.02062 -6.03469
upperback 7.60389 3.39092 -7.40195
thorax 2.15506 1.03631 -4.70177
lowerneck -1.24249 13.8952 5.50649
upperneck 4.34187 18.2952 -2.19734
head 2.33852 9.09723 -1.03647
rclavicle 4.92986e-014 3.81667e-014
rhumerus -58.0229 -24.2655 -31.0562
rradius 35.0607
rwrist -30.3487
rhand -17.7835 -48.1995
rfingers 7.12502
rthumb 8.4793 -78.0093
lclavicle 4.92986e-014 3.81667e-014
lhumerus 63.0272 -48.1565 27.8871
lradius 41.9861
lwrist 3.77954
lhand -28.3355 -27.3076
lfingers 7.12502
lthumb -1.70993 2.66532
rfemur -35.7623 -25.3305 4.3343
rtibia 93.6807
rfoot 1.22932 5.07178
rtoes -0.893135
lfemur -22.509 19.8295 13.5388
ltibia 57.2488
lfoot -37.0146 -0.808763
ltoes 2.14294
817
root -4.08808 16.9854 25.6005 -182.443 -15.1927 -158.977
lowerback 10.3998 4.00069 -6.0622
upperback 7.27449 3.36107 -7.5927
thorax 1.88771 1.03446 -4.88263
lowerneck -0.949532 14.0738 5.91987
upperneck 3.90855 18.5573 -2.55424
head 2.23722 9.23175 -1.22656
rclavicle -1.59028e-014 -4.77083e-014
rhumerus -59.0777 -24.3672 -30.9589
rradius 34.6921
rwrist -30.0037
rhand -17.681 -48.2305
rfingers 7.12502
rthumb 8.5782 -78.0362
lclavicle -1.59028e-014 -4.77083e-014
lhumerus 62.3125 -48.6726 27.6786
lradius 42.787
lwrist 4.53486
lhand -28.7033 -27.3964
lfingers 7.12502
lthumb -2.06514 2.57335
rfemur -35.3741 -25.8709 5.00699
rtibia 93.5078
rfoot 1.91857 5.48975
rtoes 0.843378
lfemur -21.5431 19.9521 13.2917
ltibia 56.1051
lfoot -37.196 -0.218273
ltoes 4.06634
818
root -4.15285 17.0754 25.6449 -182.295 -13.9584 -158.774
lowerback 10.066 3.86623 -5.87578
upperback 7.14255 3.25598 -7.53699
thorax 1.93178 0.99927 -4.90062
lowerneck -1.38675 14.4187 5.55452
upperneck 3.75804 19.0175 -2.53608
head 2.24089 9.45847 -1.12093
rclavicle -5.88403e-014 -2.03555e-013
rhumerus -59.2949 -24.4978 -30.992
rradius 34.1458
rwrist -29.7849
rhand -17.6148 -48.2004
rfingers 7.12502
rthumb 8.64206 -78.0035
lclavicle -5.88403e-014 -2.03555e-013
lhumerus 60.9743 -48.7046 27.9437
lradius 43.9153
lwrist 5.14401
lhand -28.8926 -27.2806
lfingers 7.12502
lthumb -2.24795 2.68731
rfemur -34.9591 -26.1144 5.98121
rtibia 93.2996
rfoot 2.47471 5.84289
rtoes 1.55357
lfemur -20.4317 20.1982 13.5078
ltibia 54.8839
lfoot -37.2943 0.0616479
ltoes 7.36506
